<svg width="1318" height="116" viewBox="0 0 1318 116" fill="none" xmlns="http://www.w3.org/2000/svg">
<path d="M1317.44 82.2959C1317.44 87.7158 1316.29 92.3301 1314 96.1387C1311.75 99.9473 1308.75 103.072 1304.99 105.514C1301.23 107.906 1296.91 109.688 1292.02 110.86C1287.19 112.032 1282.21 112.716 1277.08 112.911C1273.81 112.813 1270.68 112.691 1267.71 112.545C1266.44 112.496 1265.14 112.447 1263.82 112.398C1262.51 112.398 1261.21 112.374 1259.94 112.325C1258.72 112.276 1257.55 112.252 1256.43 112.252C1255.3 112.252 1254.35 112.252 1253.57 112.252C1250.35 112.35 1247 112.423 1243.54 112.472C1240.12 112.521 1236.75 112.667 1233.43 112.911C1235.63 109.933 1237.41 106.124 1238.78 101.485C1240.14 96.8467 1241.22 91.8418 1242 86.4707C1242.83 81.0996 1243.39 75.6064 1243.68 69.9912C1243.98 64.3271 1244.12 59.0293 1244.12 54.0977C1244.12 51.998 1244.07 49.459 1243.98 46.4805C1243.93 43.4531 1243.8 40.2549 1243.61 36.8857C1243.41 33.4678 1243.15 30.0254 1242.8 26.5586C1242.46 23.0918 1241.97 19.8691 1241.34 16.8906C1240.75 13.8633 1240.02 11.2021 1239.14 8.90723C1238.26 6.6123 1237.21 4.97656 1235.99 4C1239.51 4.53711 1242.93 4.90332 1246.25 5.09863C1249.57 5.24512 1252.4 5.31836 1254.74 5.31836C1256.79 5.31836 1258.62 5.29395 1260.24 5.24512C1261.85 5.14746 1263.43 5.0498 1265 4.95215C1266.56 4.85449 1268.17 4.78125 1269.83 4.73242C1271.49 4.63477 1273.37 4.58594 1275.47 4.58594C1278.69 4.63477 1281.92 4.83008 1285.14 5.17188C1288.41 5.46484 1291.51 6.00195 1294.44 6.7832C1297.42 7.56445 1300.2 8.63867 1302.79 10.0059C1305.38 11.3242 1307.6 13.0576 1309.45 15.2061C1311.36 17.3545 1312.85 19.9424 1313.92 22.9697C1315.04 25.9971 1315.61 29.5615 1315.61 33.6631C1315.61 35.8604 1315.31 38.0576 1314.73 40.2549C1314.19 42.4521 1313.29 44.6006 1312.02 46.7002C1310.8 48.7998 1309.16 50.8262 1307.11 52.7793C1305.11 54.6836 1302.64 56.4658 1299.71 58.126C1305.96 60.7139 1310.48 64.0342 1313.26 68.0869C1316.05 72.0908 1317.44 76.8271 1317.44 82.2959ZM1273.79 49.2637C1274.76 48.5312 1275.91 47.5547 1277.23 46.334C1278.55 45.0645 1279.79 43.6973 1280.96 42.2324C1282.13 40.7188 1283.14 39.1562 1283.97 37.5449C1284.8 35.9336 1285.21 34.3955 1285.21 32.9307C1285.21 31.3682 1284.75 30.0986 1283.82 29.1221C1282.94 28.1455 1281.94 27.6572 1280.82 27.6572C1279.25 27.6572 1278.01 28.3652 1277.08 29.7812C1276.15 31.1973 1275.42 32.8818 1274.88 34.835C1274.4 36.7393 1274.05 38.6924 1273.86 40.6943C1273.71 42.6475 1273.64 44.21 1273.64 45.3818C1273.64 45.9678 1273.64 46.6025 1273.64 47.2861C1273.64 47.9209 1273.69 48.5801 1273.79 49.2637ZM1283.82 85.7383C1283.82 83.9805 1283.55 82.2227 1283.01 80.4648C1282.48 78.6582 1281.74 76.9004 1280.82 75.1914C1279.94 73.4336 1278.91 71.749 1277.74 70.1377C1276.62 68.5264 1275.45 66.9883 1274.22 65.5234C1273.49 67.7207 1273 69.8936 1272.76 72.042C1272.56 74.1416 1272.47 76.0459 1272.47 77.7549C1272.47 80.2939 1272.64 82.418 1272.98 84.127C1273.32 85.7871 1273.79 87.1299 1274.37 88.1553C1275.01 89.1807 1275.74 89.9131 1276.57 90.3525C1277.4 90.792 1278.33 91.0117 1279.35 91.0117C1280.57 91.0117 1281.62 90.5723 1282.5 89.6934C1283.38 88.7656 1283.82 87.4473 1283.82 85.7383Z" fill="black"/>
<path d="M1220.57 3.31836C1219.45 8.93359 1218.55 15.6719 1217.86 23.5332C1217.18 31.3945 1216.84 39.8174 1216.84 48.8018C1216.84 50.0713 1216.84 51.3164 1216.84 52.5371C1216.89 53.709 1216.93 54.9297 1216.98 56.1992C1217.03 57.4688 1217.06 58.7871 1217.06 60.1543C1217.11 61.5215 1217.13 62.9863 1217.13 64.5488C1217.13 67.8203 1216.98 71.3115 1216.69 75.0225C1216.45 78.7334 1215.86 82.4199 1214.93 86.082C1214 89.7441 1212.69 93.2842 1210.98 96.7021C1209.27 100.071 1206.97 103.05 1204.09 105.638C1201.26 108.177 1197.75 110.203 1193.55 111.717C1189.35 113.279 1184.32 114.061 1178.46 114.061C1172.94 114.061 1168.18 113.426 1164.18 112.156C1160.22 110.936 1156.85 109.251 1154.07 107.103C1151.33 104.905 1149.11 102.342 1147.4 99.4121C1145.69 96.4824 1144.38 93.333 1143.45 89.9639C1142.52 86.5459 1141.89 83.0059 1141.54 79.3438C1141.25 75.6816 1141.1 72.0439 1141.1 68.4307C1141.1 66.8193 1141.1 65.4766 1141.1 64.4023C1141.15 63.2793 1141.2 62.2783 1141.25 61.3994C1141.3 60.4717 1141.35 59.5439 1141.4 58.6162C1141.45 57.6885 1141.5 56.5898 1141.54 55.3203C1141.59 54.0508 1141.62 52.5127 1141.62 50.7061C1141.67 48.8994 1141.69 46.6533 1141.69 43.9678C1141.69 40.6963 1141.62 36.9854 1141.47 32.835C1141.37 28.6846 1141.13 24.6074 1140.74 20.6035C1140.35 16.5508 1139.79 12.8643 1139.05 9.54395C1138.37 6.1748 1137.44 3.66016 1136.27 2C1141.2 2.87891 1145.82 3.46484 1150.11 3.75781C1154.46 4.05078 1158.46 4.19727 1162.12 4.19727C1164.47 4.19727 1166.59 4.14844 1168.5 4.05078C1170.4 3.95312 1172.04 3.85547 1173.4 3.75781C1175.02 3.61133 1176.41 3.46484 1177.58 3.31836C1176.94 6.3457 1176.31 9.73926 1175.67 13.499C1175.04 17.2588 1174.48 21.2871 1173.99 25.584C1173.5 29.8809 1173.09 34.3975 1172.75 39.1338C1172.45 43.8701 1172.31 48.6797 1172.31 53.5625C1172.31 59.666 1172.4 64.6221 1172.6 68.4307C1172.84 72.2393 1173.21 75.2178 1173.7 77.3662C1174.19 79.4658 1174.82 80.9062 1175.6 81.6875C1176.38 82.4688 1177.33 82.8594 1178.46 82.8594C1179.97 82.8594 1181.24 82.3955 1182.27 81.4678C1183.34 80.4912 1184.22 78.8799 1184.9 76.6338C1185.64 74.3389 1186.15 71.3359 1186.44 67.625C1186.78 63.9141 1186.98 59.2754 1187.03 53.709C1186.93 45.75 1186.69 38.3281 1186.29 31.4434C1186.15 28.5137 1185.93 25.5596 1185.64 22.5811C1185.39 19.6025 1185.07 16.7949 1184.68 14.1582C1184.34 11.5215 1183.93 9.15332 1183.44 7.05371C1182.95 4.90527 1182.39 3.2207 1181.75 2C1186.64 2.87891 1191.15 3.46484 1195.3 3.75781C1199.45 4.05078 1203.19 4.19727 1206.51 4.19727C1208.71 4.19727 1210.66 4.14844 1212.37 4.05078C1214.13 3.95312 1215.62 3.85547 1216.84 3.75781C1218.25 3.61133 1219.5 3.46484 1220.57 3.31836Z" fill="black"/>
<path d="M1125.68 111.227C1123.98 110.836 1121.95 110.494 1119.61 110.201C1117.31 109.908 1114.89 109.688 1112.35 109.542C1109.86 109.396 1107.37 109.298 1104.88 109.249C1102.44 109.151 1100.22 109.103 1098.22 109.103C1096.27 109.054 1094.65 109.029 1093.38 109.029C1092.12 109.029 1091.43 109.029 1091.33 109.029C1088.31 109.078 1085.04 109.225 1081.52 109.469C1078.49 109.713 1075.03 110.055 1071.12 110.494C1067.26 110.982 1063.21 111.642 1058.96 112.472C1059.94 108.712 1060.79 104.513 1061.52 99.874C1062.26 95.1865 1062.87 90.2305 1063.36 85.0059C1063.84 79.7812 1064.21 74.3857 1064.45 68.8193C1064.7 63.2529 1064.82 57.6865 1064.82 52.1201C1064.82 47.5303 1064.72 43.0137 1064.53 38.5703C1064.38 34.0781 1064.11 29.7812 1063.72 25.6797C1063.38 21.5781 1062.94 17.6963 1062.4 14.0342C1061.92 10.3721 1061.3 7.02734 1060.57 4C1065.65 4.92773 1070.24 5.53809 1074.34 5.83105C1078.49 6.12402 1082.15 6.27051 1085.33 6.27051C1087.33 6.27051 1089.11 6.24609 1090.67 6.19727C1092.24 6.09961 1093.56 6.00195 1094.63 5.9043C1095.9 5.75781 1097 5.61133 1097.93 5.46484C1096.85 8.98047 1095.85 12.7891 1094.92 16.8906C1094 20.9922 1093.19 25.2158 1092.51 29.5615C1091.87 33.8584 1091.36 38.1797 1090.97 42.5254C1090.63 46.8711 1090.46 51.0215 1090.46 54.9766C1090.46 60.0059 1090.77 64.3271 1091.41 67.9404C1092.04 71.5049 1092.97 74.4346 1094.19 76.7295C1095.46 78.9756 1096.97 80.6357 1098.73 81.71C1100.54 82.7842 1102.59 83.3213 1104.88 83.3213C1107.96 83.3213 1110.99 82.2227 1113.97 80.0254C1116.99 77.7793 1119.61 74.5322 1121.8 70.2842L1125.68 111.227Z" fill="black"/>
<path d="M1043.61 33.0547C1043.61 35.5449 1043.17 38.084 1042.3 40.6719C1041.42 43.2109 1040.15 45.5303 1038.49 47.6299C1036.88 49.6807 1034.9 51.3652 1032.55 52.6836C1030.21 54.002 1027.55 54.6611 1024.57 54.6611C1021.93 54.6611 1019.66 54.2217 1017.76 53.3428C1015.9 52.415 1014.37 51.1943 1013.15 49.6807C1011.97 48.167 1011.09 46.458 1010.51 44.5537C1009.92 42.6494 1009.63 40.6719 1009.63 38.6211C1009.63 36.5703 1009.87 34.5928 1010.36 32.6885C1010.9 30.7354 1011.71 29.002 1012.78 27.4883C1013.07 28.5137 1013.46 29.3193 1013.95 29.9053C1014.44 30.4424 1014.95 30.833 1015.49 31.0771C1016.08 31.3701 1016.71 31.541 1017.39 31.5898C1018.96 31.5898 1020.05 31.1748 1020.69 30.3447C1021.37 29.5146 1021.71 28.5625 1021.71 27.4883C1021.71 27 1021.62 26.5117 1021.42 26.0234C1021.23 25.4863 1020.91 24.998 1020.47 24.5586C1020.08 24.1191 1019.54 23.7529 1018.86 23.46C1018.17 23.167 1017.34 23.0205 1016.37 23.0205C1015.83 23.0205 1015.05 23.0938 1014.02 23.2402C1013.05 23.3867 1011.95 23.7773 1010.73 24.4121C1009.51 24.998 1008.26 25.9014 1006.99 27.1221C1005.72 28.3428 1004.55 30.0029 1003.48 32.1025C1002.45 34.2021 1001.6 36.8145 1000.91 39.9395C1000.28 43.0645 999.962 46.873 999.962 51.3652C999.962 54.4414 1000.25 57.127 1000.84 59.4219C1001.48 61.668 1002.28 63.5967 1003.26 65.208C1004.23 66.8193 1005.36 68.1377 1006.63 69.1631C1007.9 70.1885 1009.19 70.9941 1010.51 71.5801C1011.83 72.166 1013.1 72.5811 1014.32 72.8252C1015.59 73.0205 1016.71 73.1182 1017.69 73.1182C1018.96 73.1182 1020.54 72.8984 1022.45 72.459C1024.4 71.9707 1026.33 71.1162 1028.23 69.8955C1030.14 68.6748 1031.85 66.9902 1033.36 64.8418C1034.92 62.6934 1036 59.9102 1036.58 56.4922C1038.29 58.8848 1039.59 61.7412 1040.46 65.0615C1041.39 68.3818 1041.86 71.873 1041.86 75.5352C1041.86 80.5156 1040.95 85.3496 1039.15 90.0371C1037.39 94.6758 1034.85 98.8018 1031.53 102.415C1028.26 106.028 1024.28 108.909 1019.59 111.058C1014.9 113.255 1009.68 114.354 1003.92 114.354C999.669 114.354 995.738 113.67 992.125 112.303C988.512 110.984 985.216 109.129 982.237 106.736C979.259 104.344 976.646 101.536 974.4 98.3135C972.154 95.042 970.25 91.502 968.688 87.6934C967.125 83.8848 965.953 79.8809 965.172 75.6816C964.391 71.4336 964 67.1367 964 62.791C964 58.0059 964.513 53.1963 965.538 48.3623C966.563 43.4795 968.028 38.792 969.933 34.2998C971.886 29.8076 974.229 25.6084 976.964 21.7021C979.747 17.7471 982.896 14.3291 986.412 11.4482C989.928 8.51855 993.785 6.22363 997.984 4.56348C1002.18 2.85449 1006.65 2 1011.39 2C1015.68 2 1019.47 2.5127 1022.74 3.53809C1026.01 4.51465 1028.82 5.85742 1031.16 7.56641C1033.56 9.22656 1035.56 11.1309 1037.17 13.2793C1038.78 15.4277 1040.05 17.6494 1040.98 19.9443C1041.95 22.2393 1042.64 24.5342 1043.03 26.8291C1043.42 29.0752 1043.61 31.1504 1043.61 33.0547Z" fill="black"/>
<path d="M362.812 37.3506C360.42 34.7627 357.905 32.7607 355.269 31.3447C352.632 29.8799 350.19 28.8301 347.944 28.1953C345.698 27.5117 343.818 27.1211 342.305 27.0234C340.791 26.877 339.937 26.8037 339.741 26.8037C337.3 26.8037 335.322 27.1211 333.809 27.7559C332.295 28.3418 331.099 29.123 330.22 30.0996C329.39 31.0273 328.804 32.1016 328.462 33.3223C328.169 34.4941 328.022 35.6904 328.022 36.9111C328.022 38.083 328.145 39.3037 328.389 40.5732C328.682 41.8428 329.146 43.0146 329.78 44.0889C330.415 45.1143 331.27 45.9688 332.344 46.6523C333.418 47.3359 334.785 47.6777 336.445 47.6777C336.543 47.6777 336.934 47.6777 337.617 47.6777C338.301 47.6289 339.155 47.4336 340.181 47.0918C341.206 46.7012 342.329 46.0664 343.55 45.1875C344.819 44.2598 346.089 42.9414 347.358 41.2324V71.042C346.333 69.1865 345.21 67.7217 343.989 66.6475C342.769 65.5732 341.597 64.792 340.474 64.3037C339.399 63.7666 338.423 63.4492 337.544 63.3516C336.714 63.2051 336.152 63.1318 335.859 63.1318C334.248 63.1318 332.905 63.4004 331.831 63.9375C330.806 64.4746 329.976 65.2314 329.341 66.208C328.755 67.1357 328.34 68.2832 328.096 69.6504C327.852 70.9688 327.729 72.4336 327.729 74.0449C327.876 77.8047 328.242 81.6865 328.828 85.6904C329.072 87.3994 329.39 89.2061 329.78 91.1104C330.171 93.0146 330.659 94.9922 331.245 97.043C331.831 99.0449 332.515 101.071 333.296 103.122C334.077 105.124 334.98 107.102 336.006 109.055C334.932 109.006 333.76 108.933 332.49 108.835C331.367 108.737 330.049 108.664 328.535 108.615C327.07 108.566 325.41 108.542 323.555 108.542C321.357 108.542 318.965 108.615 316.377 108.762C313.789 108.859 311.152 109.055 308.467 109.348C305.781 109.641 303.071 110.031 300.337 110.52C297.603 111.057 294.99 111.716 292.5 112.497C293.574 110.3 294.502 107.517 295.283 104.147C296.064 100.778 296.699 97.1895 297.188 93.3809C297.725 89.5723 298.14 85.6904 298.433 81.7354C298.726 77.7803 298.945 74.1182 299.092 70.749C299.238 67.3311 299.312 64.377 299.312 61.8867C299.36 59.3477 299.385 57.6143 299.385 56.6865C299.385 56.4912 299.36 55.7344 299.312 54.416C299.312 53.0977 299.287 51.3887 299.238 49.2891C299.189 47.1895 299.116 44.7969 299.019 42.1113C298.921 39.377 298.774 36.5449 298.579 33.6152C298.433 30.6855 298.213 27.7314 297.92 24.7529C297.676 21.7744 297.358 18.9668 296.968 16.3301C296.626 13.6445 296.211 11.252 295.723 9.15234C295.283 7.00391 294.746 5.29492 294.111 4.02539C298.799 5.00195 303.56 5.70996 308.394 6.14941C313.276 6.54004 318.086 6.73535 322.822 6.73535C328.242 6.73535 333.369 6.56445 338.203 6.22266C343.037 5.83203 347.285 5.39258 350.947 4.9043C355.244 4.36719 359.199 3.73242 362.812 3V37.3506Z" fill="black"/>
<path d="M279.424 110.959C276.25 110.715 273.271 110.544 270.488 110.446C267.754 110.397 265.215 110.373 262.871 110.373C258.281 110.373 254.448 110.495 251.372 110.739C248.296 111.032 245.781 111.325 243.828 111.618C241.533 111.96 239.702 112.351 238.335 112.79C238.53 111.276 238.726 109.86 238.921 108.542C239.116 107.224 239.263 105.954 239.36 104.733C239.507 103.464 239.604 102.219 239.653 100.998C239.751 99.7285 239.8 98.4102 239.8 97.043C239.8 91.6719 239.58 87.2041 239.141 83.6396C238.75 80.0752 238.164 77.0967 237.383 74.7041C236.602 72.3115 235.649 70.3828 234.526 68.918C233.403 67.4531 232.158 66.1348 230.791 64.9629C230.693 67.1602 230.62 69.2842 230.571 71.335C230.522 73.3857 230.498 75.5586 230.498 77.8535C230.498 80.0996 230.547 82.4434 230.645 84.8848C230.742 87.3262 230.913 89.9141 231.157 92.6484C231.401 95.3828 231.768 98.3125 232.256 101.438C232.744 104.514 233.354 107.858 234.087 111.472C234.038 111.276 233.403 111.057 232.183 110.812C230.962 110.568 229.326 110.349 227.275 110.153C225.225 109.958 222.856 109.812 220.171 109.714C217.534 109.567 214.775 109.494 211.895 109.494C208.135 109.494 204.375 109.616 200.615 109.86C196.855 110.153 193.462 110.69 190.435 111.472C191.606 109.958 192.656 108.054 193.584 105.759C194.561 103.415 195.415 100.852 196.147 98.0684C196.88 95.2852 197.49 92.3555 197.979 89.2793C198.516 86.2031 198.979 83.1758 199.37 80.1973C200.249 73.2148 200.835 65.7686 201.128 57.8584C201.128 55.9053 201.128 53.4395 201.128 50.4609C201.177 47.4824 201.128 44.2354 200.981 40.7197C200.884 37.2041 200.688 33.5908 200.396 29.8799C200.151 26.1689 199.712 22.6045 199.077 19.1865C198.491 15.7686 197.71 12.6436 196.733 9.81152C195.757 6.97949 194.512 4.70898 192.998 3C196.514 3.53711 199.932 3.90332 203.252 4.09863C206.572 4.24512 209.404 4.31836 211.748 4.31836C213.799 4.31836 215.679 4.26953 217.388 4.17188C219.146 4.07422 220.879 3.97656 222.588 3.87891C224.297 3.78125 226.079 3.68359 227.935 3.58594C229.79 3.48828 231.841 3.43945 234.087 3.43945C237.163 3.43945 240.264 3.61035 243.389 3.95215C246.514 4.24512 249.492 4.80664 252.324 5.63672C255.205 6.41797 257.866 7.5166 260.308 8.93262C262.798 10.2998 264.946 12.0576 266.753 14.2061C268.608 16.3057 270.049 18.8447 271.074 21.8232C272.148 24.8018 272.686 28.2686 272.686 32.2236C272.686 34.4209 272.393 36.6182 271.807 38.8154C271.27 41.0127 270.366 43.1855 269.097 45.334C267.827 47.4336 266.167 49.46 264.116 51.4131C262.114 53.3174 259.648 55.0752 256.719 56.6865C260.186 58.1025 262.798 59.8604 264.556 61.96C266.362 64.0596 267.656 66.4521 268.438 69.1377C269.219 71.8232 269.634 74.7529 269.683 77.9268C269.78 81.0518 269.878 84.3232 269.976 87.7412C270.171 91.4033 270.635 94.7969 271.367 97.9219C271.66 99.2402 272.026 100.583 272.466 101.95C272.954 103.317 273.516 104.587 274.15 105.759C274.834 106.931 275.591 107.98 276.421 108.908C277.3 109.836 278.301 110.52 279.424 110.959ZM230.791 47.8242C231.865 47.043 233.062 46.0664 234.38 44.8945C235.747 43.6738 236.992 42.3555 238.115 40.9395C239.287 39.4746 240.264 37.9365 241.045 36.3252C241.826 34.7139 242.217 33.1025 242.217 31.4912C242.217 29.9287 241.753 28.6592 240.825 27.6826C239.946 26.7061 238.945 26.2178 237.822 26.2178C236.26 26.2178 235.015 26.9502 234.087 28.415C233.159 29.8311 232.427 31.5156 231.89 33.4688C231.401 35.4219 231.06 37.3994 230.864 39.4014C230.718 41.3545 230.645 42.8682 230.645 43.9424C230.645 44.5283 230.645 45.1631 230.645 45.8467C230.645 46.4814 230.693 47.1406 230.791 47.8242Z" fill="black"/>
<path d="M177.285 3.31836C176.162 8.93359 175.259 15.6719 174.575 23.5332C173.892 31.3945 173.55 39.8174 173.55 48.8018C173.55 50.0713 173.55 51.3164 173.55 52.5371C173.599 53.709 173.647 54.9297 173.696 56.1992C173.745 57.4688 173.77 58.7871 173.77 60.1543C173.818 61.5215 173.843 62.9863 173.843 64.5488C173.843 67.8203 173.696 71.3115 173.403 75.0225C173.159 78.7334 172.573 82.4199 171.646 86.082C170.718 89.7441 169.399 93.2842 167.69 96.7021C165.981 100.071 163.687 103.05 160.806 105.638C157.974 108.177 154.458 110.203 150.259 111.717C146.06 113.279 141.03 114.061 135.171 114.061C129.653 114.061 124.893 113.426 120.889 112.156C116.934 110.936 113.564 109.251 110.781 107.103C108.047 104.905 105.825 102.342 104.116 99.4121C102.407 96.4824 101.089 93.333 100.161 89.9639C99.2334 86.5459 98.5986 83.0059 98.2568 79.3438C97.9639 75.6816 97.8174 72.0439 97.8174 68.4307C97.8174 66.8193 97.8174 65.4766 97.8174 64.4023C97.8662 63.2793 97.915 62.2783 97.9639 61.3994C98.0127 60.4717 98.0615 59.5439 98.1104 58.6162C98.1592 57.6885 98.208 56.5898 98.2568 55.3203C98.3057 54.0508 98.3301 52.5127 98.3301 50.7061C98.3789 48.8994 98.4033 46.6533 98.4033 43.9678C98.4033 40.6963 98.3301 36.9854 98.1836 32.835C98.0859 28.6846 97.8418 24.6074 97.4512 20.6035C97.0605 16.5508 96.499 12.8643 95.7666 9.54395C95.083 6.1748 94.1553 3.66016 92.9834 2C97.915 2.87891 102.529 3.46484 106.826 3.75781C111.172 4.05078 115.176 4.19727 118.838 4.19727C121.182 4.19727 123.306 4.14844 125.21 4.05078C127.114 3.95312 128.75 3.85547 130.117 3.75781C131.729 3.61133 133.12 3.46484 134.292 3.31836C133.657 6.3457 133.022 9.73926 132.388 13.499C131.753 17.2588 131.191 21.2871 130.703 25.584C130.215 29.8809 129.8 34.3975 129.458 39.1338C129.165 43.8701 129.019 48.6797 129.019 53.5625C129.019 59.666 129.116 64.6221 129.312 68.4307C129.556 72.2393 129.922 75.2178 130.41 77.3662C130.898 79.4658 131.533 80.9062 132.314 81.6875C133.096 82.4688 134.048 82.8594 135.171 82.8594C136.685 82.8594 137.954 82.3955 138.979 81.4678C140.054 80.4912 140.933 78.8799 141.616 76.6338C142.349 74.3389 142.861 71.3359 143.154 67.625C143.496 63.9141 143.691 59.2754 143.74 53.709C143.643 45.75 143.398 38.3281 143.008 31.4434C142.861 28.5137 142.642 25.5596 142.349 22.5811C142.104 19.6025 141.787 16.7949 141.396 14.1582C141.055 11.5215 140.64 9.15332 140.151 7.05371C139.663 4.90527 139.102 3.2207 138.467 2C143.35 2.87891 147.866 3.46484 152.017 3.75781C156.167 4.05078 159.902 4.19727 163.223 4.19727C165.42 4.19727 167.373 4.14844 169.082 4.05078C170.84 3.95312 172.329 3.85547 173.55 3.75781C174.966 3.61133 176.211 3.46484 177.285 3.31836Z" fill="black"/>
<path d="M75.8789 25.3418C75.8789 27.7832 75.415 30.0049 74.4873 32.0068C73.6084 33.96 72.3633 35.6445 70.752 37.0605C69.1406 38.4766 67.2363 39.5752 65.0391 40.3564C62.8906 41.1377 60.5469 41.5283 58.0078 41.5283C55.2246 41.5283 52.832 41.1865 50.8301 40.5029C48.877 39.8193 47.2168 38.9648 45.8496 37.9395C44.5312 36.8652 43.4814 35.6934 42.7002 34.4238C41.9189 33.1055 41.3086 31.8359 40.8691 30.6152C40.4785 29.3945 40.21 28.2715 40.0635 27.2461C39.9658 26.2207 39.917 25.4395 39.917 24.9023C40.5029 25.8789 41.1865 26.5137 41.9678 26.8066C42.749 27.0508 43.4082 27.1729 43.9453 27.1729C45.3125 27.1729 46.2646 26.8066 46.8018 26.0742C47.3877 25.3418 47.6807 24.5605 47.6807 23.7305C47.6807 23.1934 47.5586 22.6318 47.3145 22.0459C47.1191 21.46 46.7285 20.9229 46.1426 20.4346C45.6055 19.8975 44.8486 19.458 43.8721 19.1162C42.9443 18.7744 41.7725 18.6035 40.3564 18.6035C39.3799 18.6035 38.3789 18.7988 37.3535 19.1895C36.3281 19.5312 35.376 20.0928 34.4971 20.874C33.667 21.6064 32.9834 22.5342 32.4463 23.6572C31.9092 24.7803 31.6406 26.0986 31.6406 27.6123C31.6406 29.0771 31.9336 30.542 32.5195 32.0068C33.1543 33.4229 33.9844 34.7656 35.0098 36.0352C36.084 37.3047 37.3291 38.4521 38.7451 39.4775C40.21 40.5029 41.7969 41.3574 43.5059 42.041C46.1914 43.1641 48.9502 44.2627 51.7822 45.3369C54.6631 46.4111 57.4463 47.583 60.1318 48.8525C62.8174 50.1221 65.332 51.5869 67.6758 53.2471C70.0684 54.8584 72.1436 56.7871 73.9014 59.0332C75.708 61.2793 77.124 63.916 78.1494 66.9434C79.2236 69.9219 79.7607 73.4131 79.7607 77.417C79.7607 83.1299 78.5889 88.3545 76.2451 93.0908C73.9502 97.7783 70.8496 101.807 66.9434 105.176C63.0859 108.496 58.5938 111.06 53.4668 112.866C48.3887 114.722 43.0664 115.649 37.5 115.649C32.4707 115.649 27.6855 114.893 23.1445 113.379C18.6035 111.914 14.624 109.888 11.2061 107.3C7.78809 104.712 5.05371 101.685 3.00293 98.2178C1.00098 94.7021 0 90.918 0 86.8652C0 83.8867 0.488281 81.2744 1.46484 79.0283C2.44141 76.7822 3.78418 74.9268 5.49316 73.4619C7.25098 71.9482 9.27734 70.8252 11.5723 70.0928C13.916 69.3604 16.4062 68.9941 19.043 68.9941C21.0938 68.9941 23.0957 69.2139 25.0488 69.6533C27.0508 70.0928 28.9062 70.752 30.6152 71.6309C32.373 72.4609 33.9355 73.4863 35.3027 74.707C36.7188 75.9277 37.8418 77.3193 38.6719 78.8818C37.6465 78.5889 36.7432 78.4424 35.9619 78.4424C34.6436 78.4424 33.5938 78.833 32.8125 79.6143C32.0312 80.3955 31.6406 81.5674 31.6406 83.1299C31.6406 83.96 31.8359 84.7412 32.2266 85.4736C32.6172 86.1572 33.1055 86.7676 33.6914 87.3047C34.3262 87.8418 35.0342 88.2568 35.8154 88.5498C36.6455 88.8428 37.5 88.9893 38.3789 88.9893C39.3555 88.9893 40.2588 88.7939 41.0889 88.4033C41.9189 87.9639 42.6514 87.4023 43.2861 86.7188C43.9209 86.0352 44.4092 85.2783 44.751 84.4482C45.0928 83.6182 45.2637 82.7637 45.2637 81.8848C45.2637 80.1758 44.7266 78.4424 43.6523 76.6846C42.627 74.9268 41.1133 73.3643 39.1113 71.9971C35.3027 69.6533 31.7139 67.627 28.3447 65.918C24.9756 64.209 21.875 62.5977 19.043 61.084C16.2109 59.5215 13.6475 57.959 11.3525 56.3965C9.10645 54.834 7.17773 53.0273 5.56641 50.9766C4.00391 48.9258 2.80762 46.5332 1.97754 43.7988C1.14746 41.0156 0.732422 37.6709 0.732422 33.7646C0.732422 29.0771 1.63574 24.6826 3.44238 20.5811C5.24902 16.4795 7.86133 12.915 11.2793 9.8877C14.7461 6.81152 18.9697 4.39453 23.9502 2.63672C28.9307 0.878906 34.5947 0 40.9424 0C47.3389 0 52.7588 0.78125 57.2021 2.34375C61.6455 3.85742 65.2344 5.83496 67.9688 8.27637C70.752 10.7178 72.7539 13.4521 73.9746 16.4795C75.2441 19.458 75.8789 22.4121 75.8789 25.3418Z" fill="black"/>
</svg>
